<mxfile host="65bd71144e">
    <diagram id="pmVmFMfhsGFQzAQ2voWT" name="Page-1">
        <mxGraphModel dx="714" dy="503" grid="1" gridSize="10" guides="1" tooltips="1" connect="1" arrows="1" fold="1" page="1" pageScale="1" pageWidth="827" pageHeight="1169" math="0" shadow="0">
            <root>
                <mxCell id="0"/>
                <mxCell id="1" parent="0"/>
                <mxCell id="2" value="" style="edgeStyle=none;html=1;fontFamily=Courier New;fontSize=18;" edge="1" parent="1" source="3" target="5">
                    <mxGeometry relative="1" as="geometry"/>
                </mxCell>
                <mxCell id="3" value="NICIO" style="ellipse;whiteSpace=wrap;html=1;fillColor=#60a917;fontColor=#ffffff;strokeColor=#2D7600;fontFamily=Courier New;fontSize=18;" vertex="1" parent="1">
                    <mxGeometry x="294" width="120" height="60" as="geometry"/>
                </mxCell>
                <mxCell id="5" value="a" style="shape=parallelogram;perimeter=parallelogramPerimeter;whiteSpace=wrap;html=1;fixedSize=1;fillColor=#1ba1e2;fontColor=#ffffff;strokeColor=#006EAF;fontFamily=Courier New;fontSize=18;" vertex="1" parent="1">
                    <mxGeometry x="294" y="100" width="120" height="60" as="geometry"/>
                </mxCell>
                <mxCell id="6" value="" style="edgeStyle=none;html=1;fontFamily=Courier New;fontSize=18;" edge="1" parent="1" target="10">
                    <mxGeometry relative="1" as="geometry">
                        <mxPoint x="353" y="160" as="sourcePoint"/>
                    </mxGeometry>
                </mxCell>
                <mxCell id="8" value="" style="edgeStyle=none;html=1;fontFamily=Courier New;fontSize=18;entryX=0.5;entryY=0;entryDx=0;entryDy=0;" edge="1" parent="1" source="10" target="25">
                    <mxGeometry relative="1" as="geometry">
                        <Array as="points">
                            <mxPoint x="549" y="240"/>
                        </Array>
                        <mxPoint x="549" y="330" as="targetPoint"/>
                    </mxGeometry>
                </mxCell>
                <mxCell id="9" value="" style="edgeStyle=none;html=1;fontFamily=Courier New;fontSize=18;" edge="1" parent="1" source="10" target="15">
                    <mxGeometry relative="1" as="geometry">
                        <Array as="points">
                            <mxPoint x="229" y="240"/>
                        </Array>
                    </mxGeometry>
                </mxCell>
                <mxCell id="10" value="a &amp;lt; 3000" style="rhombus;whiteSpace=wrap;html=1;fillColor=#e3c800;fontColor=#000000;strokeColor=#B09500;fontFamily=Courier New;fontSize=14;" vertex="1" parent="1">
                    <mxGeometry x="313" y="200" width="80" height="80" as="geometry"/>
                </mxCell>
                <mxCell id="11" style="edgeStyle=none;html=1;entryX=0.5;entryY=0;entryDx=0;entryDy=0;fontFamily=Courier New;fontSize=18;exitX=0.5;exitY=1;exitDx=0;exitDy=0;" edge="1" parent="1" source="25">
                    <mxGeometry relative="1" as="geometry">
                        <Array as="points">
                            <mxPoint x="549" y="530"/>
                            <mxPoint x="353" y="530"/>
                        </Array>
                        <mxPoint x="549" y="390" as="sourcePoint"/>
                        <mxPoint x="353" y="580" as="targetPoint"/>
                    </mxGeometry>
                </mxCell>
                <mxCell id="13" value="" style="edgeStyle=none;html=1;fontFamily=Courier New;fontSize=18;" edge="1" parent="1" source="15" target="27">
                    <mxGeometry relative="1" as="geometry">
                        <Array as="points">
                            <mxPoint x="379" y="350"/>
                        </Array>
                        <mxPoint x="379" y="435" as="targetPoint"/>
                    </mxGeometry>
                </mxCell>
                <mxCell id="14" value="" style="edgeStyle=none;html=1;fontFamily=Courier New;fontSize=18;" edge="1" parent="1" source="15" target="29">
                    <mxGeometry relative="1" as="geometry">
                        <Array as="points">
                            <mxPoint x="139" y="350"/>
                        </Array>
                        <mxPoint x="139" y="435" as="targetPoint"/>
                    </mxGeometry>
                </mxCell>
                <mxCell id="15" value="b1 == 0" style="rhombus;whiteSpace=wrap;html=1;fillColor=#e3c800;fontColor=#000000;strokeColor=#B09500;fontFamily=Courier New;fontSize=14;" vertex="1" parent="1">
                    <mxGeometry x="189" y="310" width="80" height="80" as="geometry"/>
                </mxCell>
                <mxCell id="16" style="edgeStyle=none;html=1;entryX=0.5;entryY=0;entryDx=0;entryDy=0;fontFamily=Courier New;fontSize=18;exitX=0.5;exitY=1;exitDx=0;exitDy=0;" edge="1" parent="1" source="27">
                    <mxGeometry relative="1" as="geometry">
                        <Array as="points">
                            <mxPoint x="379" y="530"/>
                            <mxPoint x="353" y="530"/>
                        </Array>
                        <mxPoint x="379" y="500" as="sourcePoint"/>
                        <mxPoint x="353" y="580" as="targetPoint"/>
                    </mxGeometry>
                </mxCell>
                <mxCell id="18" style="edgeStyle=none;html=1;entryX=0.5;entryY=0;entryDx=0;entryDy=0;fontFamily=Courier New;fontSize=18;exitX=0.5;exitY=1;exitDx=0;exitDy=0;" edge="1" parent="1" source="29" target="31">
                    <mxGeometry relative="1" as="geometry">
                        <Array as="points">
                            <mxPoint x="139" y="530"/>
                            <mxPoint x="353" y="530"/>
                        </Array>
                        <mxPoint x="139" y="500" as="sourcePoint"/>
                        <mxPoint x="353" y="580" as="targetPoint"/>
                    </mxGeometry>
                </mxCell>
                <mxCell id="21" value="TRUE" style="text;html=1;align=center;verticalAlign=middle;resizable=0;points=[];autosize=1;strokeColor=none;fillColor=none;fontSize=18;fontFamily=Courier New;" vertex="1" parent="1">
                    <mxGeometry x="464" y="210" width="70" height="40" as="geometry"/>
                </mxCell>
                <mxCell id="22" value="FALSE" style="text;html=1;align=center;verticalAlign=middle;resizable=0;points=[];autosize=1;strokeColor=none;fillColor=none;fontSize=18;fontFamily=Courier New;" vertex="1" parent="1">
                    <mxGeometry x="233" y="210" width="80" height="40" as="geometry"/>
                </mxCell>
                <mxCell id="23" value="TRUE" style="text;html=1;align=center;verticalAlign=middle;resizable=0;points=[];autosize=1;strokeColor=none;fillColor=none;fontSize=18;fontFamily=Courier New;" vertex="1" parent="1">
                    <mxGeometry x="293" y="320" width="70" height="40" as="geometry"/>
                </mxCell>
                <mxCell id="24" value="FALSE" style="text;html=1;align=center;verticalAlign=middle;resizable=0;points=[];autosize=1;strokeColor=none;fillColor=none;fontSize=18;fontFamily=Courier New;" vertex="1" parent="1">
                    <mxGeometry x="119" y="320" width="80" height="40" as="geometry"/>
                </mxCell>
                <mxCell id="25" value="&lt;div style=&quot;font-size: 14px; line-height: 19px;&quot;&gt;&lt;span style=&quot;&quot;&gt;g&lt;/span&gt; = &lt;span style=&quot;&quot;&gt;a&lt;/span&gt; * &lt;span style=&quot;&quot;&gt;0.15&lt;/span&gt;&lt;/div&gt;" style="rounded=0;whiteSpace=wrap;html=1;fontFamily=Courier New;fontColor=#ffffff;labelBackgroundColor=none;fillColor=#0050ef;strokeColor=#001DBC;" vertex="1" parent="1">
                    <mxGeometry x="490" y="340" width="120" height="60" as="geometry"/>
                </mxCell>
                <mxCell id="27" value="&lt;span style=&quot;font-size: 14px; background-color: initial;&quot;&gt;g&lt;/span&gt;&lt;span style=&quot;font-size: 14px; background-color: initial;&quot;&gt; = &lt;/span&gt;&lt;span style=&quot;font-size: 14px; background-color: initial;&quot;&gt;500&lt;/span&gt;" style="rounded=0;whiteSpace=wrap;html=1;fontFamily=Courier New;fontColor=#ffffff;labelBackgroundColor=none;fillColor=#0050ef;strokeColor=#001DBC;" vertex="1" parent="1">
                    <mxGeometry x="319" y="430" width="120" height="60" as="geometry"/>
                </mxCell>
                <mxCell id="29" value="&lt;div style=&quot;font-size: 14px; line-height: 19px;&quot;&gt;&lt;span style=&quot;&quot;&gt;g&lt;/span&gt; = &lt;span style=&quot;&quot;&gt;a&lt;/span&gt; * &lt;span style=&quot;&quot;&gt;0.25&lt;/span&gt;&lt;/div&gt;" style="rounded=0;whiteSpace=wrap;html=1;fontFamily=Courier New;fontColor=#ffffff;labelBackgroundColor=none;fillColor=#0050ef;strokeColor=#001DBC;" vertex="1" parent="1">
                    <mxGeometry x="79" y="430" width="120" height="60" as="geometry"/>
                </mxCell>
                <mxCell id="35" value="" style="edgeStyle=none;html=1;" edge="1" parent="1" source="31" target="34">
                    <mxGeometry relative="1" as="geometry"/>
                </mxCell>
                <mxCell id="31" value="&lt;div style=&quot;font-size: 14px; line-height: 19px;&quot;&gt;&lt;span style=&quot;&quot;&gt;P&lt;/span&gt; = &lt;span style=&quot;&quot;&gt;a&lt;/span&gt; + &lt;span style=&quot;&quot;&gt;g&lt;/span&gt;&lt;/div&gt;" style="rounded=0;whiteSpace=wrap;html=1;fontFamily=Courier New;fontColor=#ffffff;labelBackgroundColor=none;fillColor=#0050ef;strokeColor=#001DBC;" vertex="1" parent="1">
                    <mxGeometry x="293" y="580" width="120" height="60" as="geometry"/>
                </mxCell>
                <mxCell id="37" value="" style="edgeStyle=none;html=1;" edge="1" parent="1" source="34" target="36">
                    <mxGeometry relative="1" as="geometry"/>
                </mxCell>
                <mxCell id="34" value="P" style="shape=document;whiteSpace=wrap;html=1;boundedLbl=1;rounded=0;fillColor=#fa6800;fontColor=#000000;strokeColor=#C73500;" vertex="1" parent="1">
                    <mxGeometry x="310" y="680" width="90" height="60" as="geometry"/>
                </mxCell>
                <mxCell id="36" value="FIN" style="ellipse;whiteSpace=wrap;html=1;fillColor=#e51400;fontColor=#ffffff;strokeColor=#B20000;" vertex="1" parent="1">
                    <mxGeometry x="293" y="770" width="120" height="80" as="geometry"/>
                </mxCell>
            </root>
        </mxGraphModel>
    </diagram>
</mxfile>